<svg width="24" height="24" viewBox="0 0 24 24" fill="none" xmlns="http://www.w3.org/2000/svg">
<path fill-rule="evenodd" clip-rule="evenodd" d="M5.04545 6.86364C5.58794 6.86364 6.10821 6.66011 6.49181 6.29782C6.87541 5.93553 7.09091 5.44417 7.09091 4.93182C7.09091 4.41947 6.87541 3.9281 6.49181 3.56582C6.10821 3.20353 5.58794 3 5.04545 3C4.50297 3 3.9827 3.20353 3.5991 3.56582C3.2155 3.9281 3 4.41947 3 4.93182C3 5.44417 3.2155 5.93553 3.5991 6.29782C3.9827 6.66011 4.50297 6.86364 5.04545 6.86364ZM7.09091 20V8.40909H3V20H7.09091ZM8.72727 8.40909H12.4091V9.91282C12.9949 9.18568 14.2467 8.40909 16.5 8.40909C20.0427 8.40909 21 11.7473 21 13.8182V20H16.9091V13.8182C16.9091 13.0455 16.5 11.5 14.8636 11.5C13.7018 11.5 12.8836 12.2789 12.4091 13.0076V20H8.72727V8.40909Z" fill="black"/>
</svg>
