<svg width="24" height="24" viewBox="0 0 24 24" fill="none" xmlns="http://www.w3.org/2000/svg">
<path d="M20.4868 18.3571L22 19.772V19.8189H14.3245V19.772L15.8651 18.3571C16.0294 18.2261 16.1081 18.0181 16.0705 17.8139V8.76781C16.0705 8.38558 16.0705 7.86924 16.139 7.42666L10.9627 20H10.9011L5.53988 8.43252C5.42349 8.14417 5.38925 8.12406 5.31393 7.92959V15.5138C5.24975 16.0214 5.33777 16.5364 5.56727 16.9958L7.72407 19.772V19.8189H2V19.772L4.1568 16.9891C4.3846 16.5315 4.47257 16.0192 4.41013 15.5138V7.1316C4.4452 6.71888 4.31783 6.30864 4.05409 5.98491L2.52722 4.04694V4H8.00479L12.5923 13.7971L16.632 4H21.9932V4.04694L20.4868 5.68986C20.3063 5.8191 20.2161 6.03732 20.254 6.25314V17.8139C20.2141 18.0242 20.3056 18.2377 20.4868 18.3571Z" fill="#1C1B1A"/>
</svg>
