<svg width="24" height="24" viewBox="0 0 24 24" fill="none" xmlns="http://www.w3.org/2000/svg">
<path fill-rule="evenodd" clip-rule="evenodd" d="M15.2727 6.18182V4H22.3636V6.18182H15.2727ZM14.1011 9.77855C15.1375 8.56327 16.6538 7.81818 18.5455 7.81818C21.9305 7.81818 24 10.7724 24 13.8182V15.4545H16.1444C16.632 16.3927 17.5516 17.0909 18.5455 17.0909C19.5847 17.0814 20.6022 16.792 21.4909 16.2531L23.1185 19.0927C21.7571 19.8945 20.136 20.3636 18.5455 20.3636C16.9724 20.3636 15.4756 19.6338 14.3782 18.5418C13.2829 17.4487 12.5455 15.952 12.5455 14.3636C12.5455 12.616 13.0724 10.9829 14.1011 9.77855ZM21.1233 12.7273H15.4942C15.9153 11.3004 17.0455 10.5455 18.5455 10.5455C19.9135 10.5455 20.7927 11.4782 21.1233 12.7273ZM0 4.54545H6.27273C7.09231 4.54536 7.89727 4.76252 8.6056 5.17481C9.31393 5.5871 9.90032 6.17979 10.305 6.89249C10.7097 7.60519 10.9182 8.41243 10.9094 9.23196C10.9005 10.0515 10.6746 10.854 10.2545 11.5578C11.0058 12.1573 11.5522 12.9755 11.8181 13.8991C12.0841 14.8227 12.0563 15.8061 11.7389 16.7133C11.4214 17.6205 10.8298 18.4066 10.0459 18.9629C9.26211 19.5191 8.32478 19.818 7.36364 19.8182H0V4.54545ZM3.27273 13.2727V17.0909H6.81818C7.3245 17.0909 7.81009 16.8898 8.16811 16.5317C8.52614 16.1737 8.72727 15.6881 8.72727 15.1818C8.72727 14.6755 8.52614 14.1899 8.16811 13.8319C7.81009 13.4739 7.3245 13.2727 6.81818 13.2727H3.27273ZM7.63636 9.18182C7.63636 9.68814 7.43523 10.1737 7.0772 10.5317C6.71918 10.8898 6.2336 11.0909 5.72727 11.0909H3.27273V7.27273H5.72727C6.78109 7.27273 7.63636 8.128 7.63636 9.18182Z" fill="black"/>
</svg>
